# xmcd CD database file
#
# Track frame offsets:
#	150
#	24985
#	49313
#	75609
#	100997
#	131554
#	156729
#	187429
#	208156
#	233904
#	254637
#	273688
#	295524
#
# Disc length: 4231 seconds
#
# Revision: 3
# Processed by: cddbd v1.5.2PL0 Copyright (c) Steve Scherf et al.
# Submitted via: CDex 1.51
#
DISCID=cc10850d
DTITLE=Jack De Keyzer - Silver Blues
DYEAR=2005
DGENRE=Blues
TTITLE0=Train Called Rock and Roll
TTITLE1=That's The Way
TTITLE2=Dressed To Kill
TTITLE3=The Way That I Love You
TTITLE4=High On Your Love
TTITLE5=Cinderella
TTITLE6=You Shook Me
TTITLE7=Top Of The Line
TTITLE8=King Of The Blues
TTITLE9=Nothing In The World
TTITLE10=Lucky One
TTITLE11=Funk This
TTITLE12=Rock Til We Drop
EXTD=YEAR: 2005
EXTT0=
EXTT1=
EXTT2=
EXTT3=
EXTT4=
EXTT5=
EXTT6=
EXTT7=
EXTT8=
EXTT9=
EXTT10=
EXTT11=
EXTT12=
PLAYORDER=
